<?xml version="1.0" encoding="UTF-8"?>
<svg width="456px" height="89px" viewBox="0 0 456 89" version="1.1" xmlns="http://www.w3.org/2000/svg" xmlns:xlink="http://www.w3.org/1999/xlink">
    <!-- Generator: Sketch 40.1 (33804) - http://www.bohemiancoding.com/sketch -->
    <title>white</title>
    <desc>Created with Sketch.</desc>
    <defs></defs>
    <g id="Page-1" stroke="none" stroke-width="1" fill="none" fill-rule="evenodd">
        <g id="Desktop-HD" fill="#FFFFFF">
            <g id="white">
                <path d="M25.281,85.187 C25.105,85.611 25.074,85.807 25.068,86.228 L24.169,85.871 C24.639,85.371 24.697,85.226 24.903,84.722 L26.106,81.777 L25.034,82.122 L24.848,81.912 C25.044,81.846 26.724,81.19 26.954,81.135 L25.281,85.187" id="Fill-1"></path>
                <path d="M50.15,83.309 L49.303,83.387 C48.389,83.471 48.09,83.672 47.808,83.891 L47.84,83.297 C47.849,83.168 47.845,83.117 47.823,83.025 L50.934,82.742 L49.846,85.252 C51.189,85.387 51.282,86.407 51.297,86.572 C51.334,86.978 51.115,88.192 49.496,88.34 C48.703,88.413 48.361,88.293 48.131,88.207 L48.506,87.264 C48.598,87.488 48.816,87.993 49.58,87.924 C50.35,87.853 50.734,87.178 50.683,86.613 C50.648,86.228 50.376,85.936 50.102,85.846 C49.707,85.709 49.316,85.752 49.003,85.789 L50.15,83.309" id="Fill-2"></path>
                <path d="M38.613,85.484 L38.591,85.488 L37.787,85.406 L39.148,82.918 L36.361,82.637 C36.176,82.619 36.076,82.607 35.998,82.593 C35.928,82.578 35.879,82.566 35.808,82.553 L35.666,83.461 C36.044,83.209 36.2,83.102 37.446,83.228 L38.309,83.315 L37.212,85.35 L36.403,85.268 C36.254,85.252 36.175,85.244 36.113,85.232 C36.056,85.221 36.017,85.211 35.961,85.199 L35.888,85.532 L35.866,85.537 L35.887,85.538 L35.886,85.543 L35.908,85.54 L37.048,85.655 L36.556,86.566 C36.245,87.147 35.937,87.627 35.573,87.958 L36.692,88.07 C36.69,88.019 36.69,87.876 36.699,87.783 C36.732,87.455 36.88,87.067 37.33,86.24 L37.62,85.713 L38.096,85.761 C38.243,85.775 38.323,85.783 38.385,85.795 C38.442,85.807 38.481,85.818 38.538,85.828 L38.611,85.495 L38.633,85.492 L38.612,85.49 L38.613,85.484" id="Fill-3"></path>
                <path d="M62.645,83.88 L62.626,83.892 L61.818,84.065 L62.352,81.276 L59.613,81.866 C59.43,81.905 59.332,81.926 59.254,81.935 C59.182,81.942 59.133,81.946 59.061,81.956 L59.203,82.862 C59.486,82.507 59.602,82.358 60.826,82.097 L61.674,81.913 L61.254,84.186 L60.475,84.352 C60.33,84.384 60.252,84.401 60.189,84.407 C60.131,84.415 60.091,84.417 60.033,84.423 L60.066,84.763 L60.047,84.773 L60.067,84.769 L60.068,84.773 L60.088,84.765 L61.191,84.527 L61.004,85.545 C60.886,86.194 60.74,86.743 60.494,87.171 L61.594,86.935 C61.577,86.888 61.532,86.751 61.514,86.659 C61.443,86.338 61.465,85.923 61.641,84.999 L61.754,84.407 L62.238,84.302 C62.383,84.272 62.461,84.255 62.525,84.246 C62.582,84.241 62.622,84.238 62.68,84.231 L62.646,83.893 L62.667,83.882 L62.646,83.888 L62.645,83.88" id="Fill-4"></path>
                <path d="M17.96,37.092 L12.007,37.092 C12.007,47.318 18.467,58.149 32.366,62.44 C33.196,60.75 34.03,58.945 34.871,57.013 C21.802,53.391 17.96,43.467 17.96,37.092" id="Fill-5"></path>
                <path d="M46.022,58.398 C42.99,58.398 40.272,58.14 37.822,57.686 C36.849,60.023 36.011,62.009 35.42,63.242 C38.611,63.953 42.137,64.352 46.022,64.352 C47.86,64.352 49.635,64.176 51.359,63.874 C50.426,62.034 49.591,60.144 48.87,58.221 C47.936,58.326 46.991,58.398 46.022,58.398" id="Fill-6"></path>
                <path d="M53.294,67.363 C51.109,67.835 48.846,68.115 46.51,68.158 C42.145,68.238 37.783,67.717 33.644,66.686 C32.501,68.805 31.352,70.728 30.197,72.485 C35.45,73.995 41.046,74.778 46.63,74.676 C50.354,74.607 53.909,74.054 57.275,73.118 C56.878,72.607 56.477,72.083 56.065,71.531 C55.079,70.206 54.159,68.808 53.294,67.363" id="Fill-7"></path>
                <path d="M15.168,56.965 C9.999,51.932 7.348,45.789 7.289,38.708 C7.126,19.043 26.128,7.113 44.592,6.94 C62.703,6.771 77.649,18.19 77.799,18.305 L79.457,19.712 L81.036,11.901 C76.907,8.995 62.1,0.257 44.531,0.421 C22.866,0.623 0.573,15.02 0.77,38.762 C0.842,47.522 4.248,55.433 10.62,61.637 C14.993,65.895 20.763,69.275 27.19,71.531 C28.33,69.854 29.471,67.954 30.62,65.827 C24.579,63.901 19.169,60.861 15.168,56.965" id="Fill-8"></path>
                <path d="M90.356,37.484 L55.15,37.484 L55.15,44.004 L81.318,44.004 C77.14,53.476 68.305,62.685 56.811,66.421 C57.895,68.287 59.194,70.178 60.654,72.027 C75.124,66.68 85.507,54.054 89.135,41.659 L90.356,37.484 Z" id="Fill-9"></path>
                <path d="M91.666,12.389 L83.726,12.389 L83.265,14.809 C80.271,30.521 69.767,53.091 52.321,57.588 C53.102,59.361 53.989,61.201 54.945,63.03 C73.463,57.443 84.766,35.148 88.582,18.342 L88.689,18.342 L88.689,62.288 L94.643,62.288 L94.643,12.389 L91.666,12.389" id="Fill-10"></path>
                <path d="M80.583,78 C79.667,77.833 79.265,79.634 80.667,79.833 C81.25,80.083 81.084,81.083 79.917,82.083 C78.75,83.083 72.917,84.833 68.417,81.083 C63.917,77.333 59.249,72.167 56.083,66.667 C53.678,62.489 50.892,56.823 49.324,52.002 C55.824,52.158 55.083,49.25 55.083,49.25 C53.955,51.184 51.505,51.554 49.132,51.389 C48.732,50.09 48.424,48.858 48.25,47.75 C47.417,42.417 47.584,37.167 47.834,36.083 C47.833,36.083 47.694,36.174 47.463,36.352 L47.5,36.166 C47.5,36.166 40.334,40.75 32.084,35.667 C23.834,30.583 25.75,12.083 40.084,12.166 C42.834,12.083 47.167,12.916 48.917,15.666 C48.917,15.666 49.416,14.749 50.583,14.416 C50.583,14.416 49.416,14.5 48.583,14.083 C47.75,13.666 46.584,11.5 39.584,11.5 C32.584,11.5 25.084,16.416 25.084,25.666 C25.084,34.628 34.861,41.713 46.232,37.447 C44.482,39.174 41.564,42.778 38.81,49.423 C37.294,49.369 36.003,49.665 35.965,50.833 C35.921,52.213 36.742,52.591 37.517,52.647 C33.381,62.943 29.301,70.662 25,75.667 C21.083,80.227 17.084,84.333 9.167,83.333 C6.333,82.917 2.25,78.917 5.666,74.5 C6.078,73.969 6.334,75.583 7.834,74.75 C9.334,73.917 6.833,71.834 5.084,73.917 C3.334,76 1.5,83.751 12.666,84.417 C23.834,85.083 32.333,67.75 34.583,63.25 C35.678,61.061 37.876,55.504 40.17,50.132 C42.395,50.493 45.255,51.418 46.916,51.833 C47.176,51.861 47.425,51.886 47.668,51.906 C49.086,57.783 51.928,64.716 56.667,71.083 C67.833,86.083 73.667,84.999 79.25,83.583 C81.083,82.75 83.916,78.667 80.583,78 L80.583,78 Z M37,50.917 C37,50.243 37.628,49.993 38.579,49.986 C38.497,50.189 38.415,50.375 38.334,50.583 C38.121,51.129 37.909,51.661 37.696,52.193 C37.127,51.928 37,51.539 37,50.917 L37,50.917 Z M43.5,50.25 C43.009,50.119 41.754,49.785 40.406,49.581 C42.758,44.106 45.175,38.952 46.584,37.917 C46.584,37.917 45.888,42.834 47.18,49.664 C47.273,50.161 47.398,50.685 47.514,51.2 C45.621,50.897 44.006,50.385 43.5,50.25 L43.5,50.25 Z" id="Fill-11"></path>
                <path d="M124.07,15.316 C122.746,13.804 120.755,13.023 118.74,13.023 C114.711,13.023 111.914,15.671 111.914,20.445 C111.914,25.124 114.331,28.032 119,28.032 C120.28,28.032 121.608,27.796 122.697,27.228 L122.697,21.154 C123.029,21.178 123.384,21.213 123.738,21.213 C124.07,21.213 124.401,21.178 124.78,21.154 L124.78,27.843 C122.722,28.558 120.541,28.939 118.338,28.939 C112.341,28.939 109.581,25.361 109.581,20.563 C109.581,15.033 113.572,12.116 118.835,12.116 C122.366,12.116 124.355,13.165 124.876,13.496 C124.662,14.087 124.496,14.702 124.331,15.316 L124.07,15.316" id="Fill-12"></path>
                <path d="M131.103,19.506 L134.779,19.506 C135.491,19.506 136.181,19.411 136.892,19.388 C136.869,19.578 136.835,19.791 136.835,20.004 C136.835,20.194 136.869,20.408 136.892,20.669 C136.181,20.645 135.491,20.55 134.779,20.55 L131.103,20.55 L131.103,27.487 C132.549,27.535 133.974,27.44 135.398,27.392 C136.133,27.368 136.845,27.297 137.58,27.178 C137.557,27.44 137.516,27.653 137.516,27.89 C137.516,28.126 137.557,28.363 137.58,28.6 L129.02,28.6 L129.02,12.456 L137.439,12.456 C137.414,12.716 137.373,12.929 137.373,13.165 C137.373,13.402 137.414,13.64 137.439,13.875 C136.727,13.733 136.016,13.663 135.302,13.616 L132.929,13.568 L131.103,13.568 L131.103,19.506" id="Fill-13"></path>
                <path d="M155.586,20.397 C155.753,23.004 153.953,28.172 148.954,28.172 C145.426,28.172 142.488,25.66 142.488,20.848 C142.488,16.036 145,12.884 149.168,12.884 C151.063,12.884 152.91,13.69 154.095,15.183 C155.326,16.771 155.586,18.43 155.586,20.397 L155.586,20.397 Z M148.885,28.942 C154.165,28.942 157.92,25.494 157.92,20.208 C157.92,14.519 153.384,12.113 148.93,12.113 C144.027,12.113 140.156,15.373 140.156,20.563 C140.156,25.636 143.649,28.942 148.885,28.942 L148.885,28.942 Z" id="Fill-14"></path>
                <path d="M163.523,13.33 C164.522,13.283 166.136,13.212 167.016,13.353 C168.798,13.639 169.628,14.706 169.628,16.343 C169.628,18.193 168.321,19.379 166.588,19.735 C165.376,19.972 163.856,19.877 163.523,19.853 L163.523,13.33 L163.523,13.33 Z M161.44,28.657 C161.773,28.633 162.128,28.6 162.482,28.6 C162.814,28.6 163.145,28.633 163.523,28.657 L163.523,20.755 L164.427,20.755 L166.326,22.981 L169.128,26.602 C169.628,27.266 170.102,27.928 170.625,28.657 C171.05,28.633 171.525,28.6 171.976,28.6 C172.426,28.6 172.855,28.633 173.352,28.657 L172.901,28.069 L171.762,26.746 L166.873,20.565 C169.271,20.138 171.738,18.81 171.738,16.058 C171.738,13.662 170.125,12.456 166.469,12.456 L161.44,12.456 L161.44,28.657 L161.44,28.657 Z" id="Fill-15"></path>
                <path d="M190.187,15.316 C188.862,13.804 186.87,13.023 184.855,13.023 C180.827,13.023 178.03,15.671 178.03,20.445 C178.03,25.124 180.447,28.032 185.117,28.032 C186.397,28.032 187.724,27.796 188.815,27.228 L188.815,21.154 C189.146,21.178 189.5,21.213 189.856,21.213 C190.187,21.213 190.518,21.178 190.897,21.154 L190.897,27.843 C188.839,28.558 186.658,28.939 184.453,28.939 C178.457,28.939 175.696,25.361 175.696,20.563 C175.696,15.033 179.69,12.116 184.951,12.116 C188.482,12.116 190.472,13.165 190.992,13.496 C190.778,14.087 190.613,14.702 190.447,15.316 L190.187,15.316" id="Fill-16"></path>
                <polygon id="Fill-17" points="193.995 24.09 199.928 24.09 199.928 22.612 193.995 22.612"></polygon>
                <path d="M211.42,21.27 L206.207,21.27 L208.79,15.209 L211.42,21.27 L211.42,21.27 Z M209.643,12.113 L209.098,12.113 L201.699,28.657 C201.96,28.633 202.221,28.6 202.53,28.6 C202.815,28.6 203.075,28.633 203.408,28.657 C204.072,26.436 204.927,24.352 205.757,22.267 L211.775,22.267 C212.725,24.423 213.578,26.697 214.267,28.657 C214.67,28.633 215.075,28.6 215.524,28.6 C215.928,28.6 216.308,28.633 216.76,28.657 L209.643,12.113 L209.643,12.113 Z" id="Fill-18"></path>
                <path d="M221.823,21.528 C221.823,25.701 223.011,27.858 227.075,27.858 C230.854,27.858 232.209,25.132 232.209,21.291 L232.209,12.456 C232.422,12.478 232.638,12.512 232.875,12.512 C233.091,12.512 233.305,12.478 233.543,12.456 L233.543,21.884 C233.543,26.578 230.782,28.942 226.6,28.942 C224.247,28.942 222.678,28.4 221.443,27.289 C219.954,25.939 219.765,23.828 219.74,21.931 L219.74,12.456 C220.071,12.478 220.426,12.512 220.781,12.512 C221.112,12.512 221.443,12.478 221.823,12.456 L221.823,21.528" id="Fill-19"></path>
                <path d="M252.364,15.316 C251.037,13.804 249.048,13.023 247.032,13.023 C243.003,13.023 240.207,15.671 240.207,20.445 C240.207,25.124 242.624,28.032 247.294,28.032 C248.573,28.032 249.901,27.796 250.992,27.228 L250.992,21.154 C251.323,21.178 251.678,21.213 252.032,21.213 C252.364,21.213 252.694,21.178 253.074,21.154 L253.074,27.843 C251.015,28.558 248.834,28.939 246.63,28.939 C240.633,28.939 237.874,25.361 237.874,20.563 C237.874,15.033 241.866,12.116 247.128,12.116 C250.66,12.116 252.648,13.165 253.169,13.496 C252.955,14.087 252.789,14.702 252.624,15.316 L252.364,15.316" id="Fill-20"></path>
                <path d="M259.51,21.528 C259.51,25.701 260.697,27.858 264.762,27.858 C268.539,27.858 269.894,25.132 269.894,21.291 L269.894,12.456 C270.107,12.478 270.323,12.512 270.561,12.512 C270.776,12.512 270.989,12.478 271.228,12.456 L271.228,21.884 C271.228,26.578 268.468,28.942 264.285,28.942 C261.932,28.942 260.364,28.4 259.13,27.289 C257.639,25.939 257.45,23.828 257.427,21.931 L257.427,12.456 C257.758,12.478 258.113,12.512 258.468,12.512 C258.798,12.512 259.13,12.478 259.51,12.456 L259.51,21.528" id="Fill-21"></path>
                <path d="M275.814,25.458 C276.739,26.972 277.807,27.918 279.654,27.918 C281.572,27.918 282.947,26.333 282.947,24.465 C282.947,20.067 275.528,22.006 275.528,16.661 C275.528,13.61 277.949,12.116 280.792,12.116 C281.928,12.116 283.304,12.472 284.185,13.256 C283.898,13.871 283.733,14.533 283.542,15.195 L283.304,15.195 C282.805,13.918 281.763,13.138 280.364,13.138 C278.731,13.138 277.381,14.226 277.381,15.904 C277.381,20.255 284.853,18.506 284.853,23.543 C284.853,26.924 282.212,28.939 278.991,28.939 C277.83,28.939 275.933,28.44 275.125,27.563 C275.363,26.878 275.48,26.168 275.577,25.458 L275.814,25.458" id="Fill-22"></path>
                <path d="M294.049,28.705 C293.67,28.681 293.339,28.666 293.008,28.666 C292.652,28.666 292.297,28.681 291.966,28.705 L291.966,13.595 C289.569,13.595 288.122,13.738 286.77,13.88 C286.792,13.644 286.839,13.406 286.839,13.168 C286.839,12.931 286.792,12.718 286.77,12.456 L299.009,12.456 C298.985,12.718 298.957,12.931 298.957,13.168 C298.957,13.406 298.985,13.644 299.009,13.88 C297.821,13.738 296.16,13.595 294.049,13.595 L294.049,28.705" id="Fill-23"></path>
                <polygon id="Fill-24" points="298.805 24.09 304.739 24.09 304.739 22.612 298.805 22.612"></polygon>
                <path d="M310.425,21.528 C310.425,25.701 311.612,27.858 315.677,27.858 C319.455,27.858 320.81,25.132 320.81,21.291 L320.81,12.456 C321.023,12.478 321.24,12.512 321.478,12.512 C321.692,12.512 321.906,12.478 322.146,12.456 L322.146,21.884 C322.146,26.578 319.384,28.942 315.201,28.942 C312.849,28.942 311.28,28.4 310.046,27.289 C308.557,25.939 308.366,23.828 308.342,21.931 L308.342,12.456 C308.673,12.478 309.028,12.512 309.384,12.512 C309.714,12.512 310.046,12.478 310.425,12.456 L310.425,21.528" id="Fill-25"></path>
                <path d="M341.103,28.657 L340.387,28.657 C340.125,28.327 339.647,27.763 339.151,27.218 L328.902,15.887 L328.667,15.887 L328.667,28.657 C328.428,28.633 328.214,28.6 327.998,28.6 C327.76,28.6 327.545,28.633 327.331,28.657 L327.331,12.456 L328.261,12.456 L339.529,24.657 L339.768,24.657 L339.768,12.456 C339.98,12.478 340.195,12.512 340.435,12.512 C340.649,12.512 340.863,12.478 341.103,12.456 L341.103,28.657" id="Fill-26"></path>
                <path d="M346.057,12.456 C346.389,12.478 346.743,12.512 347.099,12.512 C347.43,12.512 347.761,12.478 348.14,12.456 L348.14,28.657 C347.761,28.633 347.43,28.6 347.099,28.6 C346.743,28.6 346.389,28.633 346.057,28.657 L346.057,12.456" id="Fill-27"></path>
                <path d="M363.066,16.787 L364.489,12.832 L364.656,12.456 C364.941,12.478 365.226,12.512 365.535,12.512 C365.795,12.512 366.08,12.478 366.389,12.456 C365.63,13.895 360.384,26.033 359.53,28.657 C359.363,28.633 359.196,28.6 359.054,28.6 C358.887,28.6 358.72,28.633 358.553,28.657 C355.846,23.093 352.38,14.464 351.336,12.456 C351.691,12.478 352.096,12.512 352.476,12.512 C352.855,12.512 353.21,12.478 353.639,12.456 C353.947,13.185 354.23,13.966 354.516,14.748 L356.105,18.897 L359.03,26.08 L359.244,26.08 C359.697,25.108 360.195,24.183 360.574,23.211 L363.066,16.787" id="Fill-28"></path>
                <path d="M371.183,19.506 L374.861,19.506 C375.573,19.506 376.261,19.411 376.973,19.388 C376.948,19.578 376.915,19.791 376.915,20.004 C376.915,20.194 376.948,20.408 376.973,20.669 C376.261,20.645 375.573,20.55 374.861,20.55 L371.183,20.55 L371.183,27.487 C372.63,27.535 374.054,27.44 375.478,27.392 C376.214,27.368 376.925,27.297 377.66,27.178 C377.638,27.44 377.596,27.653 377.596,27.89 C377.596,28.126 377.638,28.363 377.66,28.6 L369.101,28.6 L369.101,12.456 L377.519,12.456 C377.495,12.716 377.454,12.929 377.454,13.165 C377.454,13.402 377.495,13.64 377.519,13.875 C376.807,13.733 376.095,13.663 375.382,13.616 L373.009,13.568 L371.183,13.568 L371.183,19.506" id="Fill-29"></path>
                <path d="M383.456,13.33 C384.455,13.283 386.068,13.212 386.948,13.353 C388.729,13.639 389.56,14.706 389.56,16.343 C389.56,18.193 388.255,19.379 386.521,19.735 C385.309,19.972 383.789,19.877 383.456,19.853 L383.456,13.33 L383.456,13.33 Z M381.374,28.657 C381.705,28.633 382.06,28.6 382.414,28.6 C382.746,28.6 383.077,28.633 383.456,28.657 L383.456,20.755 L384.358,20.755 L386.259,22.981 L389.06,26.602 C389.56,27.266 390.035,27.927 390.557,28.657 C390.982,28.633 391.457,28.6 391.909,28.6 C392.358,28.6 392.787,28.633 393.284,28.657 L392.835,28.068 L391.694,26.745 L386.805,20.565 C389.204,20.138 391.671,18.809 391.671,16.058 C391.671,13.662 390.059,12.456 386.402,12.456 L381.374,12.456 L381.374,28.657 L381.374,28.657 Z" id="Fill-30"></path>
                <path d="M395.884,25.458 C396.81,26.972 397.876,27.918 399.725,27.918 C401.643,27.918 403.017,26.333 403.017,24.465 C403.017,20.067 395.599,22.006 395.599,16.661 C395.599,13.61 398.02,12.116 400.861,12.116 C401.998,12.116 403.374,12.472 404.256,13.256 C403.969,13.871 403.802,14.533 403.611,15.195 L403.374,15.195 C402.874,13.918 401.832,13.137 400.435,13.137 C398.801,13.137 397.45,14.226 397.45,15.904 C397.45,20.255 404.922,18.506 404.922,23.543 C404.922,26.924 402.281,28.939 399.06,28.939 C397.9,28.939 396.003,28.44 395.195,27.563 C395.432,26.878 395.552,26.168 395.647,25.458 L395.884,25.458" id="Fill-31"></path>
                <path d="M408.612,12.456 C408.944,12.478 409.3,12.512 409.655,12.512 C409.986,12.512 410.317,12.478 410.696,12.456 L410.696,28.657 C410.317,28.633 409.986,28.6 409.655,28.6 C409.3,28.6 408.944,28.633 408.612,28.657 L408.612,12.456" id="Fill-32"></path>
                <path d="M421.096,28.705 C420.718,28.681 420.386,28.666 420.055,28.666 C419.7,28.666 419.345,28.681 419.013,28.705 L419.013,13.595 C416.617,13.595 415.169,13.738 413.815,13.88 C413.84,13.643 413.886,13.406 413.886,13.168 C413.886,12.931 413.84,12.718 413.815,12.456 L426.056,12.456 C426.031,12.718 426.006,12.931 426.006,13.168 C426.006,13.406 426.031,13.643 426.056,13.88 C424.869,13.738 423.207,13.595 421.096,13.595 L421.096,28.705" id="Fill-33"></path>
                <path d="M437.024,21.27 L431.813,21.27 L434.394,15.209 L437.024,21.27 L437.024,21.27 Z M437.137,10.644 C437.706,10.644 438.232,10.121 438.232,9.549 C438.232,8.977 437.731,8.454 437.137,8.454 C436.541,8.454 436.041,8.977 436.041,9.549 C436.041,10.121 436.565,10.644 437.137,10.644 L437.137,10.644 Z M432.486,10.644 C433.058,10.644 433.583,10.145 433.583,9.549 C433.583,8.954 433.083,8.454 432.486,8.454 C431.893,8.454 431.392,8.977 431.392,9.549 C431.392,10.121 431.915,10.644 432.486,10.644 L432.486,10.644 Z M435.247,12.113 L434.702,12.113 L427.304,28.657 C427.564,28.633 427.826,28.6 428.134,28.6 C428.419,28.6 428.681,28.633 429.014,28.657 C429.677,26.436 430.531,24.352 431.361,22.267 L437.38,22.267 C438.329,24.423 439.183,26.697 439.872,28.657 C440.275,28.633 440.68,28.6 441.129,28.6 C441.532,28.6 441.913,28.633 442.365,28.657 L435.247,12.113 L435.247,12.113 Z" id="Fill-34"></path>
                <path d="M450.878,28.705 C450.501,28.681 450.169,28.666 449.838,28.666 C449.482,28.666 449.128,28.681 448.798,28.705 L448.798,13.595 C446.399,13.595 444.952,13.738 443.6,13.88 C443.624,13.643 443.669,13.406 443.669,13.168 C443.669,12.931 443.624,12.718 443.6,12.456 L455.839,12.456 C455.815,12.718 455.787,12.931 455.787,13.168 C455.787,13.406 455.815,13.643 455.839,13.88 C454.653,13.738 452.991,13.595 450.878,13.595 L450.878,28.705" id="Fill-35"></path>
                <path d="M124.07,47.719 C122.746,46.207 120.755,45.425 118.74,45.425 C114.711,45.425 111.914,48.074 111.914,52.848 C111.914,57.525 114.331,60.434 119,60.434 C120.28,60.434 121.608,60.199 122.697,59.631 L122.697,53.558 C123.029,53.581 123.384,53.616 123.738,53.616 C124.07,53.616 124.401,53.581 124.78,53.558 L124.78,60.246 C122.722,60.959 120.541,61.342 118.338,61.342 C112.341,61.342 109.581,57.764 109.581,52.967 C109.581,47.435 113.572,44.519 118.835,44.519 C122.366,44.519 124.355,45.567 124.876,45.9 C124.662,46.489 124.496,47.103 124.331,47.719 L124.07,47.719" id="Fill-36"></path>
                <path d="M143.625,52.802 C143.793,55.406 141.99,60.575 136.993,60.575 C133.466,60.575 130.528,58.061 130.528,53.25 C130.528,48.439 133.038,45.286 137.207,45.286 C139.101,45.286 140.949,46.092 142.133,47.585 C143.365,49.174 143.625,50.832 143.625,52.802 L143.625,52.802 Z M139.388,43.047 C139.958,43.047 140.482,42.523 140.482,41.952 C140.482,41.38 139.983,40.856 139.388,40.856 C138.792,40.856 138.292,41.38 138.292,41.952 C138.292,42.523 138.815,43.047 139.388,43.047 L139.388,43.047 Z M134.738,43.047 C135.31,43.047 135.833,42.548 135.833,41.952 C135.833,41.357 135.335,40.856 134.738,40.856 C134.144,40.856 133.643,41.38 133.643,41.952 C133.643,42.523 134.166,43.047 134.738,43.047 L134.738,43.047 Z M136.922,61.346 C142.204,61.346 145.959,57.897 145.959,52.611 C145.959,46.922 141.424,44.517 136.971,44.517 C132.067,44.517 128.193,47.774 128.193,52.967 C128.193,58.038 131.689,61.346 136.922,61.346 L136.922,61.346 Z" id="Fill-37"></path>
                <path d="M155.384,61.107 C155.006,61.084 154.674,61.068 154.343,61.068 C153.988,61.068 153.633,61.084 153.302,61.107 L153.302,45.997 C150.905,45.997 149.459,46.14 148.105,46.282 C148.129,46.046 148.175,45.81 148.175,45.571 C148.175,45.334 148.129,45.12 148.105,44.86 L160.345,44.86 C160.32,45.12 160.294,45.334 160.294,45.571 C160.294,45.81 160.32,46.046 160.345,46.282 C159.157,46.14 157.497,45.997 155.384,45.997 L155.384,61.107" id="Fill-38"></path>
                <path d="M169.244,61.107 C168.864,61.084 168.533,61.068 168.202,61.068 C167.847,61.068 167.492,61.084 167.161,61.107 L167.161,45.997 C164.765,45.997 163.317,46.14 161.965,46.282 C161.988,46.046 162.033,45.81 162.033,45.571 C162.033,45.334 161.988,45.12 161.965,44.86 L174.203,44.86 C174.179,45.12 174.152,45.334 174.152,45.571 C174.152,45.81 174.179,46.046 174.204,46.282 C173.017,46.14 171.356,45.997 169.244,45.997 L169.244,61.107" id="Fill-39"></path>
                <path d="M177.6,44.858 C177.929,44.883 178.284,44.915 178.64,44.915 C178.971,44.915 179.302,44.883 179.68,44.858 L179.68,61.059 C179.302,61.037 178.971,61.002 178.64,61.002 C178.284,61.002 177.929,61.037 177.6,61.059 L177.6,44.858" id="Fill-40"></path>
                <path d="M198.747,61.059 L198.032,61.059 C197.77,60.73 197.294,60.164 196.795,59.619 L186.549,48.289 L186.311,48.289 L186.311,61.059 C186.073,61.037 185.857,61.002 185.644,61.002 C185.405,61.002 185.19,61.037 184.976,61.059 L184.976,44.858 L185.905,44.858 L197.175,57.06 L197.413,57.06 L197.413,44.858 C197.628,44.883 197.841,44.915 198.08,44.915 C198.295,44.915 198.51,44.883 198.747,44.858 L198.747,61.059" id="Fill-41"></path>
                <path d="M217.739,47.719 C216.413,46.207 214.422,45.425 212.407,45.425 C208.379,45.425 205.582,48.074 205.582,52.848 C205.582,57.525 207.998,60.434 212.669,60.434 C213.948,60.434 215.276,60.199 216.366,59.631 L216.366,53.558 C216.697,53.581 217.052,53.616 217.407,53.616 C217.739,53.616 218.069,53.581 218.448,53.558 L218.448,60.246 C216.39,60.959 214.21,61.342 212.006,61.342 C206.009,61.342 203.248,57.764 203.248,52.967 C203.248,47.435 207.241,44.519 212.503,44.519 C216.034,44.519 218.023,45.567 218.544,45.9 C218.329,46.489 218.163,47.103 217.999,47.719 L217.739,47.719" id="Fill-42"></path>
                <path d="M225.054,51.909 L228.732,51.909 C229.445,51.909 230.134,51.814 230.845,51.791 C230.821,51.98 230.787,52.193 230.787,52.407 C230.787,52.597 230.821,52.81 230.845,53.072 C230.134,53.049 229.445,52.953 228.732,52.953 L225.054,52.953 L225.054,59.891 C226.502,59.938 227.926,59.843 229.35,59.794 C230.085,59.771 230.798,59.699 231.532,59.581 C231.51,59.843 231.468,60.056 231.468,60.292 C231.468,60.528 231.51,60.766 231.532,61.002 L222.972,61.002 L222.972,44.858 L231.39,44.858 C231.367,45.118 231.326,45.332 231.326,45.567 C231.326,45.806 231.367,46.042 231.39,46.278 C230.679,46.137 229.967,46.065 229.254,46.017 L226.882,45.971 L225.054,45.971 L225.054,51.909" id="Fill-43"></path>
                <path d="M249.533,61.059 L248.818,61.059 C248.556,60.73 248.078,60.164 247.581,59.619 L237.333,48.289 L237.096,48.289 L237.096,61.059 C236.859,61.037 236.644,61.002 236.43,61.002 C236.191,61.002 235.977,61.037 235.761,61.059 L235.761,44.858 L236.691,44.858 L247.961,57.06 L248.199,57.06 L248.199,44.858 C248.412,44.883 248.627,44.915 248.865,44.915 C249.081,44.915 249.295,44.883 249.533,44.858 L249.533,61.059" id="Fill-44"></path>
            </g>
        </g>
    </g>
</svg>